<svg width="2110" height="2932" viewBox="0 0 2110 2932" xmlns="http://www.w3.org/2000/svg"><title>Group</title><g stroke="#fff" stroke-width="10" stroke-linecap="square" fill="none"><path d="M441.28 2800.102l222.025-102.89 288.226 50.476 574.462 171.476 111.203-272.953 307.196 119.58-16.382-264.954 157.242-250.578-228.336-209.64 180.438-245.61-43.446-314.266-5.242-332.57 59-330.78-197.72-270.025 247.68-251.61 1.415-282.75L1658.54 97l-382.673-2.96-266.437 10.312-249.407 117.132-287.71-141.89-409.883 50.86-52.336 490.905 156.648 740.898 299.125 173.476 58.406 305.368-351.398 543.867-40.547 283.71 308.953 131.422z"/><path d="M47.672 303.242l444.29 573.805L942.39 1197l40.553 633.555L929.5 2205.89l-90.516 224.9M838.852 2437.008l-173.547 258.437-231.813-144.86 8.445 238.782"/><path d="M151.805 2671.406L423.72 2546.86m173.99-242.126l132.548-247.75-195.64-210.164 447.39-9.93L732.852 1650l-266.204-120.094-25.273-340.265 47-310.984 190.82-235.437 277.328 219.436 194.235 191.71-63.235 282.75-120.687 140.923-214.477 167.99-220.47 188.76M2080.72 2250.28l-396.4 90.447-154.265 230.406-2 343.156M1521.47 2575.82l-83.69-282.297 229.298 47.9M1682.945 2340.555l-347.984-405.36-167.616-310.468 140.406-286.024 186.305 251.985 110.234 436.953 237.233 16.305"/><path d="M1664.703 1642.07l-177.03-57.382 203.272-259.086-218.992-252.65 192.438-70.788 377.196-180.96"/><path d="M1692.117 1325.39l-599.148 16.313 76.06 284.367 325.75-45.515-165.03 341.6 106.828 381.056-254.062 220.407-235.368 211.65M1151.352 1053.93l319.812 25.132-174.96-340.054 84.585-405.742 261.405-76.586 209.055 291.195-461.953-203.54"/><path d="M1673.125 101.586l-290.547 233.82-110.305-237.89M438.898 2550.805l396.914-122.094 342.57 96.376 329.227 59.82M840.773 2427.297l310.4-73.617 280.304-53.9-290.75-270.436 181.992-100.446 272.366 94.97"/><path d="M1151.172 2356.71l-15.79-332.78-151.75-196.68 188.89-203.71M745.89 1656.703l2.962-310.328-302.985-160.133-333.61-133.89 165.618-441.46-262.508 17.06"/><path d="M179.43 1363.438l266.882-182.368 283.72-136.406L954.054 856.36 1102.32 638.85l271.65-296.094M989.5 116.875l95.93 181.922-211.508 161.61-192.235 183.788-392.914-40.03L509.008 357.17 488.25 94.522"/><path d="M69.47 138.04l441.327 226.335L673 637.328"/><path d="M44.336 293.21l463.187 71.165 366.36 96.445 227.89 176.96-16.757-339.608M761.203 229.97L504.18 367.86M112.086 1052.414l380.68-187.47 446.36-6.452M467.664 1526.297l289.055-181.93-31.587-296.6"/><path d="M939.336 2739.5l-101.344-312.54-240.64-121.648 333.742-92.89 210.617-183.477 28.165-411.812-211.57-124.61-202.235-147.96 182.883-152.274 218.922-135.892 143.102 276.368 172.953-254.508L1580.828 604.5l57.82-346.055 449.47 40.618"/><path d="M1161.602 1064.86l-62.79-410.774 196.96 93.992 344.712-487.945 30.688-156.72L2079.57 289.79M430.398 2542.18L175.75 2379.47M180.266 2383.945l416.71-81.547M728.867 2052.344l252.71-214.032M365.055 2102.03l363.703-48.483M1670.313 1642.54l361.773 149.374"/><path d="M1153.352 1055.594l147.82-319.883" id="Path-37"/><path d="M1585.922 589.336l-296.54 148.266M1086.555 1339l-143.438-148.86 9.93-329.812-77.102-397.055-112.234-232.92" id="Path-38"/><path d="M764.742 223.977l323.156 77.546L1375.548 340M1008.633 113.242l369.703 222.024" id="Path-39"/><path d="M439.102 2549.008c0-7.93 164.648-244.65 164.648-244.65l-245.68-196.225M729.78 2051.79l207.72 160.648 211.57 137.437 29.21 172.445 56.86 307.71M1248.625 2825.516l267.47-236.196M1528.094 2589.695l110.82 52.414 49.97-293.126 229.366 152.266M1675.742 2316.883l-70.72-286.305 68.72-380.672M1704.813 1317.633l279.265-173.547-328.71-134.477 195.648-459.048-268.375 44.93"/><path d="M1583.094 604.46l116.617 717.18" id="Path-45"/><path d="M1985.18 1481.703l-288.75-153.82-22.305 314.78 177.922 401.876-168.063 291.726"/><path d="M1679.016 1641.398l303.507-153.445" id="Path-46"/><path d="M1648.156 2640.14l273.407-131.445"/></g></svg>