
<svg width="2110px" height="2932px" viewBox="0 0 2110 2932" version="1.1" xmlns="http://www.w3.org/2000/svg" xmlns:xlink="http://www.w3.org/1999/xlink" xmlns:sketch="http://www.bohemiancoding.com/sketch/ns">
    <g id="Page-1" stroke="black" stroke-width="1" fill="none" sketch:type="MSPage">
        <g id="Group" sketch:type="MSLayerGroup" transform="translate(10.000000, 13.000000)" stroke="white" stroke-width="10" stroke-linecap="square" opacity="1">
            <path d="M431.28125,2787.10156 L653.304688,2684.21094 L941.53125,2734.6875 L1515.99219,2906.16406 L1627.19531,2633.21094 L1934.39062,2752.78906 L1918.00781,2487.83594 L2075.25,2237.25781 L1846.91406,2027.61719 L2027.35156,1782.00781 L1983.90625,1467.74219 L1978.66406,1135.17188 L2037.66406,804.390625 L1839.94531,534.367188 L2087.625,282.757812 L2089.03906,0.0078125 L1648.53906,84 L1265.86719,81.0390625 L999.429688,91.3515625 L750.023438,208.484375 L462.3125,66.59375 L52.4296875,117.453125 L0.09375,608.359375 L156.742188,1349.25781 L455.867188,1522.73437 L514.273438,1828.10156 L162.875,2371.96875 L122.328125,2655.67969 L431.28125,2787.10156 Z" id="Path-1" sketch:type="MSShapeGroup"></path>
            <path d="M37.671875,290.242188 L481.960938,864.046875 L932.390625,1184 L972.945312,1817.55469 L919.5,2192.89062 L828.984375,2417.78906" id="Path-2" sketch:type="MSShapeGroup"></path>
            <path d="M828.851562,2424.00781 L655.304688,2682.44531 L423.492188,2537.58594 L431.9375,2776.36719" id="Path-3" sketch:type="MSShapeGroup"></path>
            <path d="M141.804688,2658.40625 L413.71875,2533.85938 M587.710938,2291.73438 L720.257812,2043.98438 L524.617188,1833.82031 L972.007812,1823.89062 L722.851562,1637 L456.648438,1516.90625 L431.375,1176.64062 L478.375,865.65625 L669.195312,630.21875 L946.523438,849.65625 L1140.75781,1041.36719 L1077.52344,1324.11719 L956.835938,1465.03906 L742.359375,1633.03125 L521.890625,1821.78906" id="Path-4" sketch:type="MSShapeGroup"></path>
            <path d="M2070.71875,2237.28125 L1674.32031,2327.72656 L1520.05469,2558.13281 L1518.05469,2901.28906" id="Path-6" sketch:type="MSShapeGroup"></path>
            <path d="M1511.46875,2562.82031 L1427.78125,2280.52344 L1657.07812,2328.42188" id="Path-7" sketch:type="MSShapeGroup"></path>
            <path d="M1672.94531,2327.55469 L1324.96094,1922.19531 L1157.34375,1611.72656 L1297.75,1325.70312 L1484.05469,1577.6875 L1594.28906,2014.64062 L1831.52344,2030.94531" id="Path-8" sketch:type="MSShapeGroup"></path>
            <path d="M1654.70312,1629.07031 L1477.67188,1571.6875 L1680.94531,1312.60156 L1461.95312,1059.95312 L1654.39062,989.164062 L2031.58594,808.203125" id="Path-9" sketch:type="MSShapeGroup"></path>
            <path d="M1682.11719,1312.39062 L1082.96875,1328.70312 L1159.03125,1613.07031 L1484.78125,1567.55469 L1319.75,1909.15625 L1426.57812,2290.21094 L1172.51562,2510.61719 L937.148438,2722.26562" id="Path-10" sketch:type="MSShapeGroup"></path>
            <path d="M1141.35156,1040.92969 L1461.16406,1066.0625 L1286.20312,726.007812 L1370.78906,320.265625 L1632.19531,243.679688 L1841.25,534.875 L1379.29688,331.335938" id="Path-12" sketch:type="MSShapeGroup"></path>
            <path d="M1663.125,88.5859375 L1372.57812,322.40625 L1262.27344,84.515625" id="Path-13" sketch:type="MSShapeGroup"></path>
            <path d="M428.898438,2537.80469 L825.8125,2415.71094 L1168.38281,2512.08594 L1497.60938,2571.90625" id="Path-15" sketch:type="MSShapeGroup"></path>
            <path d="M830.773438,2414.29688 L1141.17188,2340.67969 L1421.47656,2286.78125 L1130.72656,2016.34375 L1312.71875,1915.89844 L1585.08594,2010.86719" id="Path-16" sketch:type="MSShapeGroup"></path>
            <path d="M1141.17188,2343.71094 L1125.38281,2010.92969 L973.632812,1814.25 L1162.52344,1610.53906" id="Path-17" sketch:type="MSShapeGroup"></path>
            <path d="M735.890625,1643.70312 L738.851562,1333.375 L435.867188,1173.24219 L102.257812,1039.35156 L267.875,597.890625 L5.3671875,614.953125" id="Path-18" sketch:type="MSShapeGroup"></path>
            <path d="M169.429688,1350.4375 L436.3125,1168.07031 L720.03125,1031.66406 L944.054688,843.359375 L1092.32031,625.851562 L1363.96875,329.757812 M979.5,103.875 L1075.42969,285.796875 L863.921875,447.40625 L671.6875,631.195312 L278.773438,591.164062 L499.007813,344.171875 L478.25,81.5234375" id="Path-19" sketch:type="MSShapeGroup"></path>
            <path d="M59.46875,125.039062 L500.796875,351.375 L663,624.328125" id="Path-20" sketch:type="MSShapeGroup"></path>
            <path d="M34.3359375,280.210938 L497.523438,351.375 L863.882812,447.820312 L1091.77344,624.78125 L1075.01562,285.171875" id="Path-21" sketch:type="MSShapeGroup"></path>
            <path d="M751.203125,216.96875 L494.179688,354.859375" id="Path-22" sketch:type="MSShapeGroup"></path>
            <path d="M102.085938,1039.41406 L482.765625,851.945312 L929.125,845.492188" id="Path-23" sketch:type="MSShapeGroup"></path>
            <path d="M457.664062,1513.29688 L746.71875,1331.36719 L715.132812,1034.76562" id="Path-24" sketch:type="MSShapeGroup"></path>
            <path d="M929.335938,2726.5 L827.992188,2413.96094 L587.351562,2292.3125 L921.09375,2199.42188 L1131.71094,2015.94531 L1159.875,1604.13281 L948.304688,1479.52344 L746.070312,1331.5625 L928.953125,1179.28906 L1147.875,1043.39844 L1290.97656,1319.76562 L1463.92969,1065.25781 L1570.82812,591.5 L1628.64844,245.445313 L2078.11719,286.0625" id="Path-25" sketch:type="MSShapeGroup"></path>
            <path d="M1151.60156,1051.85938 L1088.8125,641.085938 L1285.77344,735.078125 L1630.48438,247.132812 L1661.17188,90.4140625 L2069.57031,276.789062" id="Path-26" sketch:type="MSShapeGroup"></path>
            <path d="M420.398438,2529.17969 L165.75,2366.46875" id="Path-28" sketch:type="MSShapeGroup"></path>
            <path d="M170.265625,2370.94531 L586.976562,2289.39844" id="Path-29" sketch:type="MSShapeGroup"></path>
            <path d="M718.867188,2039.34375 L971.578125,1825.3125" id="Path-30" sketch:type="MSShapeGroup"></path>
            <path d="M355.054688,2089.03125 L718.757812,2040.54688" id="Path-33" sketch:type="MSShapeGroup"></path>
            <path d="M1660.3125,1629.53906 L2022.08594,1778.91406" id="Path-35" sketch:type="MSShapeGroup"></path>
            <path d="M1143.35156,1042.59375 L1291.17188,722.710938" id="Path-37" sketch:type="MSShapeGroup"></path>
            <path d="M1575.92188,576.335938 L1279.38281,724.601562" id="Path-38" sketch:type="MSShapeGroup"></path>
            <path d="M1076.55469,1326 L933.117188,1177.14062 L943.046875,847.328125 L865.945312,450.273438 L753.710938,217.351562" id="Path-38" sketch:type="MSShapeGroup"></path>
            <path d="M754.742188,210.976562 L1077.89844,288.523438 L1365.54688,327" id="Path-39" sketch:type="MSShapeGroup"></path>
            <path d="M998.632812,100.242188 L1368.33594,322.265625" id="Path-39" sketch:type="MSShapeGroup"></path>
            <path d="M429.101562,2536.00781 C429.101562,2528.07812 593.75,2291.35938 593.75,2291.35938 L348.070312,2095.13281" id="Path-37" sketch:type="MSShapeGroup"></path>
            <path d="M719.78125,2038.78906 L927.5,2199.4375 L1139.07031,2336.875 L1168.28125,2509.32031 L1225.14062,2817.03125" id="Path-38" sketch:type="MSShapeGroup"></path>
            <path id="Path-39" sketch:type="MSShapeGroup" d=""></path>
            <path d="M1238.625,2812.51562 L1506.09375,2576.32031" id="Path-40" sketch:type="MSShapeGroup"></path>
            <path d="M1518.09375,2576.69531 L1628.91406,2629.10938 L1678.88281,2335.98438 L1908.25,2488.25" id="Path-41" sketch:type="MSShapeGroup"></path>
            <path d="M1665.74219,2303.88281 L1595.02344,2017.57812 L1663.74219,1636.90625" id="Path-43" sketch:type="MSShapeGroup"></path>
            <path d="M1694.8125,1304.63281 L1974.07812,1131.08594 L1645.36719,996.609375 L1841.01562,537.5625 L1572.64062,582.492188" id="Path-44" sketch:type="MSShapeGroup"></path>
            <path d="M1573.09375,591.460938 L1689.71094,1308.64062" id="Path-45" sketch:type="MSShapeGroup"></path>
            <path d="M1975.17969,1468.70312 L1686.42969,1314.88281 L1664.125,1629.66406 L1842.04688,2031.53906 L1673.98438,2323.26562" id="Path-45" sketch:type="MSShapeGroup"></path>
            <path d="M1669.01562,1628.39844 L1972.52344,1474.95312" id="Path-46" sketch:type="MSShapeGroup"></path>
            <path d="M1638.15625,2627.14062 L1911.5625,2495.69531" id="Path-46" sketch:type="MSShapeGroup"></path>
        </g>
    </g>
</svg>